<svg width="23.257690" height="12.708984" viewBox="0 0 23.2577 12.709" fill="none" xmlns="http://www.w3.org/2000/svg" xmlns:xlink="http://www.w3.org/1999/xlink">
	<desc>
			Created with Pixso.
	</desc>
	<defs/>
	<path id="ru" d="M8.60449 12.5991L5.72168 8.54736Q5.23828 8.60449 4.71533 8.60449L1.33154 8.60449L1.33154 12.5991L0 12.5991L0 0L4.71533 0Q7.12793 0 8.49463 1.15137Q9.86572 2.30273 9.86572 4.31982Q9.86572 5.79639 9.11865 6.81592Q8.37158 7.83105 6.98291 8.2793L10.0635 12.5991L8.60449 12.5991ZM4.68018 7.4707Q6.55225 7.4707 7.54102 6.64453Q8.52979 5.81396 8.52979 4.31982Q8.52979 2.79053 7.54102 1.97314Q6.55225 1.15137 4.68018 1.15137L1.33154 1.15137L1.33154 7.4707L4.68018 7.4707ZM18.0897 12.709Q15.6419 12.709 14.2708 11.3071Q12.9041 9.90088 12.9041 7.21582L12.9041 0L14.2357 0L14.2357 7.16309Q14.2357 9.36035 15.2244 10.4414Q16.2176 11.5181 18.0897 11.5181Q19.9793 11.5181 20.9681 10.4414Q21.9613 9.36035 21.9613 7.16309L21.9613 0L23.2577 0L23.2577 7.21582Q23.2577 9.90088 21.8953 11.3071Q20.5374 12.709 18.0897 12.709Z" fill="#323232" fill-opacity="1.000000" fill-rule="evenodd"/>
</svg>
