<svg width="30.000000" height="30.449951" viewBox="0 0 30 30.45" fill="none" xmlns="http://www.w3.org/2000/svg" xmlns:xlink="http://www.w3.org/1999/xlink">
	<desc>
			Created with Pixso.
	</desc>
	<defs/>
	<path id="Vector" d="M26.7858 0L3.21423 0C1.4397 0 0 1.4613 0 3.26245L0 27.1875C0 28.9886 1.4397 30.45 3.21423 30.45L26.7858 30.45C28.5603 30.45 30 28.9886 30 27.1875L30 3.26245C30 1.4613 28.5603 0 26.7858 0ZM23.5111 10.7935C23.5245 10.9838 23.5245 11.1809 23.5245 11.3712C23.5245 17.264 19.1049 24.0541 11.0291 24.0541C8.53796 24.0541 6.22766 23.3201 4.28577 22.0559C4.64062 22.0967 4.98218 22.1102 5.34375 22.1102C7.39954 22.1102 9.28796 21.4033 10.7947 20.2072C8.86609 20.1664 7.24548 18.8817 6.6897 17.1145C7.36609 17.2164 7.97546 17.2164 8.67188 17.033C6.66296 16.6184 5.15625 14.824 5.15625 12.6558L5.15625 12.6014C5.73889 12.9344 6.42188 13.1383 7.13843 13.1655C6.53601 12.7588 6.04224 12.2072 5.70093 11.5596C5.35974 10.912 5.18188 10.1888 5.18298 9.45447C5.18298 8.62524 5.39734 7.86401 5.77905 7.20471C7.94202 9.90979 11.1897 11.677 14.8326 11.8673C14.2098 8.84277 16.4397 6.38904 19.1183 6.38904C20.3839 6.38904 21.5223 6.92603 22.3259 7.79602C23.317 7.60571 24.2678 7.23193 25.1116 6.72217C24.7834 7.75525 24.0938 8.62524 23.183 9.17578C24.067 9.08057 24.9241 8.8291 25.7142 8.48254C25.1183 9.37292 24.3683 10.1614 23.5111 10.7935Z" fill="#F1F1F1" fill-opacity="1.000000" fill-rule="nonzero"/>
</svg>
